<svg xmlns="http://www.w3.org/2000/svg" width="128" height="128" fill="none" viewBox="0 0 128 128" id="approved-store">
  <path stroke="#000" stroke-linecap="round" stroke-width="6" d="M74 102L52 102C37.6406 102 26 90.3594 26 76L26 45V45C26 34.5066 34.5066 26 45 26L83 26C93.4934 26 102 34.5066 102 45V45L102 79.5"></path>
  <path stroke="#000" stroke-width="6" d="M26 50.5C26 52.1415 26.3233 53.767 26.9515 55.2835 27.5797 56.8001 28.5004 58.1781 29.6612 59.3388 30.8219 60.4996 32.1999 61.4203 33.7165 62.0485 35.233 62.6767 36.8585 63 38.5 63 40.1415 63 41.767 62.6767 43.2835 62.0485 44.8001 61.4203 46.1781 60.4996 47.3388 59.3388 48.4996 58.1781 49.4203 56.8001 50.0485 55.2835 50.6767 53.767 51 52.1415 51 50.5M51 27L51 51C51 52.6415 51.3363 54.267 51.9896 55.7835 52.6429 57.3001 53.6004 58.6781 54.8076 59.8388 56.0148 60.9996 57.4479 61.9203 59.0251 62.5485 60.6023 63.1767 62.2928 63.5 64 63.5 65.7072 63.5 67.3977 63.1767 68.9749 62.5485 70.5521 61.9203 71.9852 60.9996 73.1924 59.8388 74.3996 58.6781 75.3571 57.3001 76.0104 55.7835 76.6637 54.267 77 52.6415 77 51L77 27M77 50.5C77 52.1415 77.3233 53.767 77.9515 55.2835 78.5797 56.8001 79.5004 58.1781 80.6612 59.3388 81.8219 60.4996 83.1999 61.4203 84.7165 62.0485 86.233 62.6767 87.8585 63 89.5 63 91.1415 63 92.767 62.6767 94.2835 62.0485 95.8001 61.4203 97.1781 60.4996 98.3388 59.3388 99.4996 58.1781 100.42 56.8001 101.048 55.2835 101.677 53.767 102 52.1415 102 50.5"></path>
  <path stroke="#000" stroke-linecap="round" stroke-width="6" d="M84 96.1027C85.9535 97.9345 89.9442 101.676 90.2791 101.99C90.614 102.304 98.2326 94.7943 102 91"></path>
</svg>
