<svg width="24" height="24" viewBox="0 0 24 24" fill="none" xmlns="http://www.w3.org/2000/svg">
<path d="M18.3749 17.0485L17.3333 7.24851C17.3333 6.63239 16.856 6.13336 16.2666 6.13336H12H7.73331C7.14398 6.13336 6.66664 6.63239 6.66664 7.24851L5.62504 17.0485C5.60958 17.1249 5.59998 17.2035 5.59998 17.2849C5.59998 17.901 6.07731 18.4 6.66664 18.4H12H17.3333C17.9226 18.4 18.4 17.901 18.4 17.2849C18.4 17.2035 18.3904 17.1249 18.3749 17.0485ZM14.6666 8.86994V9.47882C14.6666 11.0161 13.4704 12.2667 12 12.2667C10.5296 12.2667 9.33331 11.0161 9.33331 9.47882V8.86994C9.02344 8.75508 8.79998 8.44842 8.79998 8.08488C8.79998 7.6232 9.15838 7.24851 9.59998 7.24851C10.0416 7.24851 10.4 7.6232 10.4 8.08488V9.47882C10.4 10.401 11.1178 11.1515 12 11.1515C12.8821 11.1515 13.6 10.401 13.6 9.47882V8.08488C13.6 7.6232 13.9584 7.24851 14.4 7.24851C14.8416 7.24851 15.2 7.6232 15.2 8.08488C15.2 8.44842 14.9765 8.75508 14.6666 8.86994Z" fill="#F9F9F9"/>
</svg>
