<svg width="375" height="266" viewBox="0 0 375 266" fill="none" xmlns="http://www.w3.org/2000/svg">
<g filter="url(#filter0_d_2_1824)">
<mask id="mask0_2_1824" style="mask-type:alpha" maskUnits="userSpaceOnUse" x="16" y="24" width="343" height="216">
<rect x="16" y="24" width="343" height="216" rx="8" fill="#222222"/>
</mask>
<g mask="url(#mask0_2_1824)">
<g filter="url(#filter1_d_2_1824)">
<rect x="16" y="24" width="344" height="216" rx="8" fill="#222222"/>
</g>
<path d="M227.5 161.5C207.204 158.502 183.838 160.679 165.418 163.642C144.515 167.005 122.696 164.38 104.493 153.567C80.4884 139.309 51.2911 136.779 25.1923 146.697L16.5 150L8 247H296L294.425 235.028C293.81 230.357 292.712 225.786 290.764 221.496C283.629 205.785 262.541 166.677 227.5 161.5Z" fill="url(#paint0_linear_2_1824)" fill-opacity="0.05"/>
<circle cx="326.5" cy="53.5" r="120.5" fill="url(#paint1_linear_2_1824)" fill-opacity="0.05"/>
</g>
<g clip-path="url(#clip0_2_1824)">
</g>
<mask id="mask1_2_1824" style="mask-type:alpha" maskUnits="userSpaceOnUse" x="40" y="58" width="32" height="24">
<rect x="40" y="58" width="32" height="24" rx="8" fill="#FFBA49"/>
</mask>
<g mask="url(#mask1_2_1824)">
<rect x="40" y="58" width="32" height="24" rx="8" fill="#FFBA49"/>
<rect x="34" y="60" width="20" height="7" rx="2.5" stroke="#D29634" stroke-width="0.3"/>
<rect x="34" y="67" width="20" height="7" rx="2.5" stroke="#D29634" stroke-width="0.3"/>
<rect x="34" y="74" width="20" height="7" rx="2.5" stroke="#D29634" stroke-width="0.3"/>
<rect x="59" y="60" width="20" height="7" rx="2.5" stroke="#D29634" stroke-width="0.3"/>
<rect x="59" y="67" width="20" height="7" rx="2.5" stroke="#D29634" stroke-width="0.3"/>
<rect x="59" y="74" width="20" height="7" rx="2.5" stroke="#D29634" stroke-width="0.3"/>
</g>
<path opacity="0.8" d="M49.0238 189.2C48.3504 189.2 47.7704 189.05 47.2838 188.75C46.8038 188.45 46.4371 188.043 46.1838 187.53C45.9304 187.01 45.8038 186.433 45.8038 185.8C45.8038 185.293 45.8838 184.823 46.0438 184.39C46.2038 183.95 46.4304 183.567 46.7238 183.24C47.0238 182.913 47.3671 182.66 47.7538 182.48C48.1471 182.293 48.5704 182.2 49.0238 182.2C49.6171 182.2 50.1071 182.28 50.4938 182.44C50.8871 182.6 51.1771 182.79 51.3638 183.01C51.4904 183.17 51.5638 183.387 51.5838 183.66C51.6038 183.933 51.6138 184.22 51.6138 184.52H51.3538C51.2271 183.893 50.9938 183.423 50.6538 183.11C50.3204 182.79 49.8771 182.63 49.3238 182.63C48.9038 182.63 48.5204 182.727 48.1738 182.92C47.8271 183.113 47.5504 183.44 47.3438 183.9C47.1371 184.36 47.0338 184.993 47.0338 185.8C47.0338 186.18 47.0771 186.547 47.1638 186.9C47.2504 187.253 47.3838 187.573 47.5638 187.86C47.7504 188.14 47.9871 188.363 48.2738 188.53C48.5604 188.69 48.9104 188.77 49.3238 188.77C49.7971 188.77 50.2238 188.65 50.6038 188.41C50.9838 188.163 51.3004 187.81 51.5538 187.35L51.8438 187.57C51.5304 188.157 51.1438 188.577 50.6838 188.83C50.2304 189.077 49.6771 189.2 49.0238 189.2ZM53.6543 189.1C53.4276 189.1 53.2176 189.07 53.0243 189.01C52.8376 188.957 52.6709 188.873 52.5243 188.76C52.3776 188.647 52.2609 188.503 52.1743 188.33C52.0943 188.157 52.0543 187.957 52.0543 187.73C52.0543 187.39 52.1476 187.113 52.3343 186.9C52.5209 186.687 52.8076 186.53 53.1943 186.43C53.5876 186.323 54.0876 186.27 54.6943 186.27H54.9043C54.9043 185.843 54.8643 185.513 54.7843 185.28C54.7043 185.04 54.5876 184.873 54.4343 184.78C54.2876 184.68 54.1143 184.63 53.9143 184.63C53.6676 184.63 53.4509 184.69 53.2643 184.81C53.0776 184.923 52.9476 185.157 52.8743 185.51H52.3643C52.3643 185.337 52.3743 185.167 52.3943 185C52.4209 184.833 52.4943 184.683 52.6143 184.55C52.7343 184.417 52.9343 184.327 53.2143 184.28C53.5009 184.227 53.8009 184.2 54.1143 184.2C54.4009 184.2 54.6609 184.237 54.8943 184.31C55.1343 184.383 55.3376 184.5 55.5043 184.66C55.6776 184.82 55.8109 185.037 55.9043 185.31C55.9976 185.577 56.0443 185.907 56.0443 186.3V189H55.3343L54.9843 188.55H54.9343C54.8409 188.683 54.6876 188.81 54.4743 188.93C54.2609 189.043 53.9876 189.1 53.6543 189.1ZM54.0143 188.62C54.2476 188.62 54.4343 188.553 54.5743 188.42C54.7209 188.28 54.8309 188.137 54.9043 187.99V186.7H54.6943C54.2076 186.7 53.8443 186.79 53.6043 186.97C53.3643 187.143 53.2443 187.397 53.2443 187.73C53.2443 188.03 53.3176 188.253 53.4643 188.4C53.6109 188.547 53.7943 188.62 54.0143 188.62ZM57.0186 189V185.56C57.0186 185.26 56.9786 185.02 56.8986 184.84C56.8186 184.653 56.6286 184.56 56.3286 184.56H56.2286V184.3H57.1386C57.3719 184.3 57.5519 184.333 57.6786 184.4C57.8119 184.46 57.9119 184.56 57.9786 184.7C58.0986 184.593 58.2653 184.483 58.4786 184.37C58.6919 184.257 58.9453 184.2 59.2386 184.2C59.3653 184.2 59.4853 184.217 59.5986 184.25C59.7186 184.277 59.8186 184.32 59.8986 184.38C59.9986 184.447 60.0753 184.53 60.1286 184.63C60.1819 184.723 60.2219 184.79 60.2486 184.83L59.7786 185.18C59.7119 185.087 59.6153 185.007 59.4886 184.94C59.3619 184.867 59.2153 184.83 59.0486 184.83C58.8419 184.83 58.6586 184.867 58.4986 184.94C58.3453 185.013 58.2219 185.107 58.1286 185.22C58.1353 185.3 58.1419 185.377 58.1486 185.45C58.1553 185.517 58.1586 185.573 58.1586 185.62V189H57.0186ZM62.2045 189.1C61.7645 189.1 61.3979 188.993 61.1045 188.78C60.8112 188.56 60.5912 188.263 60.4445 187.89C60.2979 187.517 60.2245 187.103 60.2245 186.65C60.2245 186.19 60.2979 185.777 60.4445 185.41C60.5979 185.037 60.8245 184.743 61.1245 184.53C61.4312 184.31 61.8145 184.2 62.2745 184.2C62.5212 184.2 62.7379 184.233 62.9245 184.3C63.1112 184.36 63.2712 184.427 63.4045 184.5V183.66C63.4045 183.36 63.3612 183.12 63.2745 182.94C63.1945 182.753 63.0045 182.66 62.7045 182.66H62.5645V182.4H63.6445C63.8779 182.4 64.0579 182.437 64.1845 182.51C64.3179 182.583 64.4112 182.71 64.4645 182.89C64.5179 183.07 64.5445 183.327 64.5445 183.66V189H63.8345L63.4845 188.55H63.4345C63.3412 188.683 63.1945 188.81 62.9945 188.93C62.8012 189.043 62.5379 189.1 62.2045 189.1ZM62.4445 188.67C62.6245 188.67 62.7745 188.637 62.8945 188.57C63.0212 188.503 63.1245 188.42 63.2045 188.32C63.2845 188.22 63.3512 188.127 63.4045 188.04V184.93C63.2845 184.857 63.1479 184.79 62.9945 184.73C62.8412 184.663 62.6812 184.63 62.5145 184.63C62.2479 184.63 62.0312 184.72 61.8645 184.9C61.7045 185.073 61.5879 185.313 61.5145 185.62C61.4479 185.92 61.4145 186.263 61.4145 186.65C61.4145 187.03 61.4479 187.373 61.5145 187.68C61.5812 187.987 61.6912 188.23 61.8445 188.41C61.9979 188.583 62.1979 188.67 62.4445 188.67ZM67.8794 189V183.66C67.8794 183.36 67.836 183.12 67.7494 182.94C67.6694 182.753 67.4794 182.66 67.1794 182.66H67.0294V182.4H68.1094C68.3427 182.4 68.5227 182.437 68.6494 182.51C68.7827 182.583 68.876 182.71 68.9294 182.89C68.9827 183.07 69.0094 183.327 69.0094 183.66V185.37H71.8294V182.4H72.9694V187.74C72.9694 188.04 73.0094 188.283 73.0894 188.47C73.176 188.65 73.3694 188.74 73.6694 188.74H73.8094V189H72.7294C72.496 189 72.3127 188.967 72.1794 188.9C72.0527 188.827 71.9627 188.7 71.9094 188.52C71.856 188.333 71.8294 188.073 71.8294 187.74V185.8H69.0094V189H67.8794ZM76.1833 189.1C75.7033 189.1 75.29 188.993 74.9433 188.78C74.5967 188.56 74.33 188.263 74.1433 187.89C73.9633 187.517 73.8733 187.103 73.8733 186.65C73.8733 186.19 73.9633 185.777 74.1433 185.41C74.33 185.037 74.5967 184.743 74.9433 184.53C75.29 184.31 75.7033 184.2 76.1833 184.2C76.67 184.2 77.0867 184.31 77.4333 184.53C77.78 184.743 78.0433 185.037 78.2233 185.41C78.41 185.777 78.5033 186.19 78.5033 186.65C78.5033 187.103 78.41 187.517 78.2233 187.89C78.0433 188.263 77.78 188.56 77.4333 188.78C77.0867 188.993 76.67 189.1 76.1833 189.1ZM76.1833 188.67C76.43 188.67 76.6367 188.583 76.8033 188.41C76.97 188.23 77.0967 187.987 77.1833 187.68C77.2767 187.373 77.3233 187.03 77.3233 186.65C77.3233 186.263 77.2767 185.92 77.1833 185.62C77.0967 185.313 76.97 185.073 76.8033 184.9C76.6367 184.72 76.43 184.63 76.1833 184.63C75.95 184.63 75.7467 184.72 75.5733 184.9C75.4067 185.073 75.2767 185.313 75.1833 185.62C75.0967 185.92 75.0533 186.263 75.0533 186.65C75.0533 187.03 75.0967 187.373 75.1833 187.68C75.2767 187.987 75.4067 188.23 75.5733 188.41C75.7467 188.583 75.95 188.67 76.1833 188.67ZM79.185 189V183.66C79.185 183.36 79.1417 183.12 79.055 182.94C78.975 182.753 78.785 182.66 78.485 182.66H78.345V182.4H79.425C79.6584 182.4 79.8384 182.437 79.965 182.51C80.0984 182.583 80.1917 182.71 80.245 182.89C80.2984 183.07 80.325 183.327 80.325 183.66V189H79.185ZM82.9868 189.1C82.5468 189.1 82.1801 188.993 81.8868 188.78C81.5934 188.56 81.3734 188.263 81.2268 187.89C81.0801 187.517 81.0068 187.103 81.0068 186.65C81.0068 186.19 81.0801 185.777 81.2268 185.41C81.3801 185.037 81.6068 184.743 81.9068 184.53C82.2134 184.31 82.5968 184.2 83.0568 184.2C83.3034 184.2 83.5201 184.233 83.7068 184.3C83.8934 184.36 84.0534 184.427 84.1868 184.5V183.66C84.1868 183.36 84.1434 183.12 84.0568 182.94C83.9768 182.753 83.7868 182.66 83.4868 182.66H83.3468V182.4H84.4268C84.6601 182.4 84.8401 182.437 84.9668 182.51C85.1001 182.583 85.1934 182.71 85.2468 182.89C85.3001 183.07 85.3268 183.327 85.3268 183.66V189H84.6168L84.2668 188.55H84.2168C84.1234 188.683 83.9768 188.81 83.7768 188.93C83.5834 189.043 83.3201 189.1 82.9868 189.1ZM83.2268 188.67C83.4068 188.67 83.5568 188.637 83.6768 188.57C83.8034 188.503 83.9068 188.42 83.9868 188.32C84.0668 188.22 84.1334 188.127 84.1868 188.04V184.93C84.0668 184.857 83.9301 184.79 83.7768 184.73C83.6234 184.663 83.4634 184.63 83.2968 184.63C83.0301 184.63 82.8134 184.72 82.6468 184.9C82.4868 185.073 82.3701 185.313 82.2968 185.62C82.2301 185.92 82.1968 186.263 82.1968 186.65C82.1968 187.03 82.2301 187.373 82.2968 187.68C82.3634 187.987 82.4734 188.23 82.6268 188.41C82.7801 188.583 82.9801 188.67 83.2268 188.67ZM88.1896 189.1C87.723 189.1 87.323 188.993 86.9896 188.78C86.663 188.56 86.4096 188.267 86.2296 187.9C86.0563 187.527 85.9696 187.11 85.9696 186.65C85.9696 186.15 86.0596 185.717 86.2396 185.35C86.4196 184.983 86.6696 184.7 86.9896 184.5C87.3096 184.3 87.6763 184.2 88.0896 184.2C88.523 184.2 88.8963 184.283 89.2096 184.45C89.5296 184.617 89.7763 184.857 89.9496 185.17C90.123 185.483 90.2096 185.853 90.2096 186.28L90.1796 186.82H87.1596C87.1596 187.433 87.2663 187.897 87.4796 188.21C87.6996 188.517 87.993 188.67 88.3596 188.67C88.6996 188.67 88.9763 188.597 89.1896 188.45C89.4096 188.297 89.6063 188.097 89.7796 187.85L90.0396 188.05C89.9263 188.243 89.7863 188.42 89.6196 188.58C89.453 188.733 89.253 188.86 89.0196 188.96C88.7863 189.053 88.5096 189.1 88.1896 189.1ZM87.1596 186.39H89.0196C89.0196 185.763 88.9363 185.313 88.7696 185.04C88.6096 184.767 88.383 184.63 88.0896 184.63C87.923 184.63 87.7696 184.693 87.6296 184.82C87.4896 184.947 87.3763 185.14 87.2896 185.4C87.203 185.66 87.1596 185.99 87.1596 186.39ZM90.9616 189V185.56C90.9616 185.26 90.9216 185.02 90.8416 184.84C90.7616 184.653 90.5716 184.56 90.2716 184.56H90.1716V184.3H91.0816C91.315 184.3 91.495 184.333 91.6216 184.4C91.755 184.46 91.855 184.56 91.9216 184.7C92.0416 184.593 92.2083 184.483 92.4216 184.37C92.635 184.257 92.8883 184.2 93.1816 184.2C93.3083 184.2 93.4283 184.217 93.5416 184.25C93.6616 184.277 93.7616 184.32 93.8416 184.38C93.9416 184.447 94.0183 184.53 94.0716 184.63C94.125 184.723 94.165 184.79 94.1916 184.83L93.7216 185.18C93.655 185.087 93.5583 185.007 93.4316 184.94C93.305 184.867 93.1583 184.83 92.9916 184.83C92.785 184.83 92.6016 184.867 92.4416 184.94C92.2883 185.013 92.165 185.107 92.0716 185.22C92.0783 185.3 92.085 185.377 92.0916 185.45C92.0983 185.517 92.1016 185.573 92.1016 185.62V189H90.9616ZM101.687 189.06L97.4274 183.93V189H96.9674V183.6C96.9674 183.327 96.9041 183.103 96.7774 182.93C96.6574 182.75 96.4208 182.66 96.0674 182.66H95.9974V182.4H96.6774C97.0374 182.4 97.3274 182.453 97.5474 182.56C97.7741 182.66 97.9641 182.807 98.1174 183L101.587 187.14V182.4H102.047V189.06H101.687ZM104.354 189.1C104.127 189.1 103.917 189.07 103.724 189.01C103.537 188.957 103.371 188.873 103.224 188.76C103.077 188.647 102.961 188.503 102.874 188.33C102.794 188.157 102.754 187.957 102.754 187.73C102.754 187.39 102.847 187.113 103.034 186.9C103.221 186.687 103.507 186.53 103.894 186.43C104.287 186.323 104.787 186.27 105.394 186.27H105.604C105.604 185.843 105.564 185.513 105.484 185.28C105.404 185.04 105.287 184.873 105.134 184.78C104.987 184.68 104.814 184.63 104.614 184.63C104.367 184.63 104.151 184.69 103.964 184.81C103.777 184.923 103.647 185.157 103.574 185.51H103.064C103.064 185.337 103.074 185.167 103.094 185C103.121 184.833 103.194 184.683 103.314 184.55C103.434 184.417 103.634 184.327 103.914 184.28C104.201 184.227 104.501 184.2 104.814 184.2C105.101 184.2 105.361 184.237 105.594 184.31C105.834 184.383 106.037 184.5 106.204 184.66C106.377 184.82 106.511 185.037 106.604 185.31C106.697 185.577 106.744 185.907 106.744 186.3V189H106.034L105.684 188.55H105.634C105.541 188.683 105.387 188.81 105.174 188.93C104.961 189.043 104.687 189.1 104.354 189.1ZM104.714 188.62C104.947 188.62 105.134 188.553 105.274 188.42C105.421 188.28 105.531 188.137 105.604 187.99V186.7H105.394C104.907 186.7 104.544 186.79 104.304 186.97C104.064 187.143 103.944 187.397 103.944 187.73C103.944 188.03 104.017 188.253 104.164 188.4C104.311 188.547 104.494 188.62 104.714 188.62ZM107.748 189V185.56C107.748 185.26 107.705 185.02 107.618 184.84C107.538 184.653 107.348 184.56 107.048 184.56H106.908V184.3H107.868C108.088 184.3 108.268 184.333 108.408 184.4C108.548 184.46 108.652 184.557 108.718 184.69H108.758C108.878 184.577 109.045 184.467 109.258 184.36C109.478 184.253 109.738 184.2 110.038 184.2C110.258 184.2 110.452 184.23 110.618 184.29C110.792 184.343 110.938 184.42 111.058 184.52C111.185 184.613 111.278 184.713 111.338 184.82C111.492 184.64 111.685 184.493 111.918 184.38C112.158 184.26 112.452 184.2 112.798 184.2C113.118 184.2 113.398 184.26 113.638 184.38C113.878 184.493 114.065 184.683 114.198 184.95C114.332 185.21 114.398 185.567 114.398 186.02V189H113.268V186.02C113.268 185.527 113.192 185.18 113.038 184.98C112.892 184.78 112.702 184.68 112.468 184.68C112.275 184.68 112.092 184.73 111.918 184.83C111.745 184.93 111.615 185.043 111.528 185.17C111.568 185.257 111.595 185.383 111.608 185.55C111.628 185.71 111.638 185.867 111.638 186.02V189H110.508V186.02C110.508 185.527 110.432 185.18 110.278 184.98C110.132 184.78 109.942 184.68 109.708 184.68C109.548 184.68 109.395 184.723 109.248 184.81C109.102 184.89 108.978 184.983 108.878 185.09V189H107.748ZM117.216 189.1C116.75 189.1 116.35 188.993 116.016 188.78C115.69 188.56 115.436 188.267 115.256 187.9C115.083 187.527 114.996 187.11 114.996 186.65C114.996 186.15 115.086 185.717 115.266 185.35C115.446 184.983 115.696 184.7 116.016 184.5C116.336 184.3 116.703 184.2 117.116 184.2C117.55 184.2 117.923 184.283 118.236 184.45C118.556 184.617 118.803 184.857 118.976 185.17C119.15 185.483 119.236 185.853 119.236 186.28L119.206 186.82H116.186C116.186 187.433 116.293 187.897 116.506 188.21C116.726 188.517 117.02 188.67 117.386 188.67C117.726 188.67 118.003 188.597 118.216 188.45C118.436 188.297 118.633 188.097 118.806 187.85L119.066 188.05C118.953 188.243 118.813 188.42 118.646 188.58C118.48 188.733 118.28 188.86 118.046 188.96C117.813 189.053 117.536 189.1 117.216 189.1ZM116.186 186.39H118.046C118.046 185.763 117.963 185.313 117.796 185.04C117.636 184.767 117.41 184.63 117.116 184.63C116.95 184.63 116.796 184.693 116.656 184.82C116.516 184.947 116.403 185.14 116.316 185.4C116.23 185.66 116.186 185.99 116.186 186.39Z" fill="white"/>
<path opacity="0.8" d="M196 189V183.66C196 183.36 195.957 183.12 195.87 182.94C195.79 182.753 195.6 182.66 195.3 182.66H195.15V182.4H199.5C199.733 182.4 199.91 182.44 200.03 182.52C200.15 182.593 200.233 182.693 200.28 182.82C200.327 182.94 200.35 183.067 200.35 183.2V184.01H200.09C200.09 183.597 199.98 183.297 199.76 183.11C199.547 182.923 199.24 182.83 198.84 182.83H197.13V185.37H199.77V185.8H197.13V188.57H198.86C199.26 188.57 199.59 188.49 199.85 188.33C200.11 188.163 200.323 187.87 200.49 187.45L200.73 187.53L200.41 188.38C200.35 188.573 200.26 188.727 200.14 188.84C200.02 188.947 199.837 189 199.59 189H196ZM200.839 189L202.489 186.84L201.569 185.3C201.429 185.06 201.276 184.873 201.109 184.74C200.942 184.607 200.772 184.527 200.599 184.5V184.3H201.509C201.796 184.3 202.032 184.373 202.219 184.52C202.412 184.66 202.582 184.853 202.729 185.1L203.269 186.01L204.569 184.3H205.169L203.519 186.45L204.449 188C204.589 188.24 204.742 188.427 204.909 188.56C205.082 188.693 205.259 188.773 205.439 188.8V189H204.509C204.222 189 203.982 188.93 203.789 188.79C203.602 188.643 203.436 188.447 203.289 188.2L202.749 187.29L201.439 189H200.839ZM205.903 190.9V185.56C205.903 185.26 205.859 185.02 205.773 184.84C205.693 184.653 205.503 184.56 205.203 184.56H205.063V184.3H206.023C206.256 184.3 206.436 184.333 206.563 184.4C206.696 184.467 206.796 184.577 206.863 184.73C206.989 184.617 207.163 184.5 207.383 184.38C207.609 184.26 207.896 184.2 208.243 184.2C208.683 184.2 209.046 184.31 209.333 184.53C209.626 184.743 209.846 185.037 209.993 185.41C210.139 185.777 210.213 186.19 210.213 186.65C210.213 187.103 210.139 187.517 209.993 187.89C209.846 188.263 209.619 188.56 209.313 188.78C209.013 188.993 208.633 189.1 208.173 189.1C207.926 189.1 207.706 189.067 207.513 189C207.319 188.94 207.159 188.873 207.033 188.8V190.9H205.903ZM207.933 188.67C208.199 188.67 208.413 188.583 208.573 188.41C208.733 188.23 208.849 187.987 208.923 187.68C208.996 187.373 209.033 187.03 209.033 186.65C209.033 186.263 208.996 185.92 208.923 185.62C208.856 185.313 208.746 185.073 208.593 184.9C208.446 184.72 208.249 184.63 208.003 184.63C207.756 184.63 207.556 184.677 207.403 184.77C207.249 184.863 207.126 184.967 207.033 185.08V188.37C207.146 188.437 207.283 188.503 207.443 188.57C207.603 188.637 207.766 188.67 207.933 188.67ZM211.032 189V185.56C211.032 185.26 210.988 185.02 210.902 184.84C210.822 184.653 210.632 184.56 210.332 184.56H210.192V184.3H211.272C211.505 184.3 211.685 184.337 211.812 184.41C211.945 184.483 212.038 184.61 212.092 184.79C212.145 184.97 212.172 185.227 212.172 185.56V189H211.032ZM211.572 183.74C211.358 183.74 211.192 183.67 211.072 183.53C210.958 183.383 210.902 183.213 210.902 183.02C210.902 182.867 210.948 182.743 211.042 182.65C211.142 182.557 211.265 182.51 211.412 182.51C211.625 182.51 211.792 182.583 211.912 182.73C212.032 182.87 212.092 183.033 212.092 183.22C212.092 183.38 212.042 183.507 211.942 183.6C211.842 183.693 211.718 183.74 211.572 183.74ZM213.182 189V185.56C213.182 185.26 213.142 185.02 213.062 184.84C212.982 184.653 212.792 184.56 212.492 184.56H212.392V184.3H213.302C213.535 184.3 213.715 184.333 213.842 184.4C213.975 184.46 214.075 184.56 214.142 184.7C214.262 184.593 214.428 184.483 214.642 184.37C214.855 184.257 215.108 184.2 215.402 184.2C215.528 184.2 215.648 184.217 215.762 184.25C215.882 184.277 215.982 184.32 216.062 184.38C216.162 184.447 216.238 184.53 216.292 184.63C216.345 184.723 216.385 184.79 216.412 184.83L215.942 185.18C215.875 185.087 215.778 185.007 215.652 184.94C215.525 184.867 215.378 184.83 215.212 184.83C215.005 184.83 214.822 184.867 214.662 184.94C214.508 185.013 214.385 185.107 214.292 185.22C214.298 185.3 214.305 185.377 214.312 185.45C214.318 185.517 214.322 185.573 214.322 185.62V189H213.182ZM217.035 191V190.67C217.369 190.67 217.649 190.603 217.875 190.47C218.102 190.337 218.292 190.07 218.445 189.67L218.645 189.12L216.925 185.2C216.825 184.953 216.689 184.767 216.515 184.64C216.349 184.507 216.152 184.427 215.925 184.4V184.2H216.795C217.095 184.2 217.352 184.273 217.565 184.42C217.785 184.56 217.949 184.753 218.055 185L219.205 187.62L220.435 184.3H220.955L218.965 189.65C218.832 190.01 218.689 190.287 218.535 190.48C218.382 190.68 218.212 190.817 218.025 190.89C217.839 190.963 217.629 191 217.395 191H217.035ZM223.857 189V183.66C223.857 183.36 223.814 183.12 223.727 182.94C223.647 182.753 223.457 182.66 223.157 182.66H223.007V182.4H225.687C227.04 182.4 228.054 182.693 228.727 183.28C229.4 183.86 229.737 184.653 229.737 185.66C229.737 186.313 229.594 186.893 229.307 187.4C229.02 187.9 228.594 188.293 228.027 188.58C227.467 188.86 226.774 189 225.947 189H223.857ZM225.917 188.62C226.397 188.62 226.824 188.503 227.197 188.27C227.57 188.03 227.864 187.693 228.077 187.26C228.297 186.82 228.407 186.3 228.407 185.7C228.407 185.113 228.3 184.603 228.087 184.17C227.874 183.73 227.577 183.39 227.197 183.15C226.824 182.903 226.39 182.78 225.897 182.78C225.75 182.78 225.61 182.787 225.477 182.8C225.35 182.813 225.19 182.843 224.997 182.89V188.53C225.144 188.557 225.264 188.577 225.357 188.59C225.457 188.603 225.55 188.613 225.637 188.62C225.724 188.62 225.817 188.62 225.917 188.62ZM231.645 189.1C231.418 189.1 231.208 189.07 231.015 189.01C230.828 188.957 230.661 188.873 230.515 188.76C230.368 188.647 230.251 188.503 230.165 188.33C230.085 188.157 230.045 187.957 230.045 187.73C230.045 187.39 230.138 187.113 230.325 186.9C230.511 186.687 230.798 186.53 231.185 186.43C231.578 186.323 232.078 186.27 232.685 186.27H232.895C232.895 185.843 232.855 185.513 232.775 185.28C232.695 185.04 232.578 184.873 232.425 184.78C232.278 184.68 232.105 184.63 231.905 184.63C231.658 184.63 231.441 184.69 231.255 184.81C231.068 184.923 230.938 185.157 230.865 185.51H230.355C230.355 185.337 230.365 185.167 230.385 185C230.411 184.833 230.485 184.683 230.605 184.55C230.725 184.417 230.925 184.327 231.205 184.28C231.491 184.227 231.791 184.2 232.105 184.2C232.391 184.2 232.651 184.237 232.885 184.31C233.125 184.383 233.328 184.5 233.495 184.66C233.668 184.82 233.801 185.037 233.895 185.31C233.988 185.577 234.035 185.907 234.035 186.3V189H233.325L232.975 188.55H232.925C232.831 188.683 232.678 188.81 232.465 188.93C232.251 189.043 231.978 189.1 231.645 189.1ZM232.005 188.62C232.238 188.62 232.425 188.553 232.565 188.42C232.711 188.28 232.821 188.137 232.895 187.99V186.7H232.685C232.198 186.7 231.835 186.79 231.595 186.97C231.355 187.143 231.235 187.397 231.235 187.73C231.235 188.03 231.308 188.253 231.455 188.4C231.601 188.547 231.785 188.62 232.005 188.62ZM236.409 189.1C235.996 189.1 235.666 188.987 235.419 188.76C235.179 188.527 235.059 188.177 235.059 187.71V184.73H234.419V184.3H235.059V183.4L235.559 182.8H236.199V184.3H237.339V184.73H236.199V187.74C236.199 188.087 236.249 188.33 236.349 188.47C236.449 188.603 236.596 188.67 236.789 188.67C236.962 188.67 237.112 188.647 237.239 188.6C237.366 188.547 237.472 188.49 237.559 188.43L237.689 188.68C237.562 188.78 237.399 188.877 237.199 188.97C236.999 189.057 236.736 189.1 236.409 189.1ZM239.888 189.1C239.421 189.1 239.021 188.993 238.688 188.78C238.361 188.56 238.108 188.267 237.928 187.9C237.754 187.527 237.668 187.11 237.668 186.65C237.668 186.15 237.758 185.717 237.938 185.35C238.118 184.983 238.368 184.7 238.688 184.5C239.008 184.3 239.374 184.2 239.788 184.2C240.221 184.2 240.594 184.283 240.908 184.45C241.228 184.617 241.474 184.857 241.648 185.17C241.821 185.483 241.908 185.853 241.908 186.28L241.878 186.82H238.858C238.858 187.433 238.964 187.897 239.178 188.21C239.398 188.517 239.691 188.67 240.058 188.67C240.398 188.67 240.674 188.597 240.888 188.45C241.108 188.297 241.304 188.097 241.478 187.85L241.738 188.05C241.624 188.243 241.484 188.42 241.318 188.58C241.151 188.733 240.951 188.86 240.718 188.96C240.484 189.053 240.208 189.1 239.888 189.1ZM238.858 186.39H240.718C240.718 185.763 240.634 185.313 240.468 185.04C240.308 184.767 240.081 184.63 239.788 184.63C239.621 184.63 239.468 184.693 239.328 184.82C239.188 184.947 239.074 185.14 238.988 185.4C238.901 185.66 238.858 185.99 238.858 186.39Z" fill="white"/>
</g>
<defs>
<filter id="filter0_d_2_1824" x="-9" y="0" width="393" height="266" filterUnits="userSpaceOnUse" color-interpolation-filters="sRGB">
<feFlood flood-opacity="0" result="BackgroundImageFix"/>
<feColorMatrix in="SourceAlpha" type="matrix" values="0 0 0 0 0 0 0 0 0 0 0 0 0 0 0 0 0 0 127 0" result="hardAlpha"/>
<feOffset dy="1"/>
<feGaussianBlur stdDeviation="12.5"/>
<feColorMatrix type="matrix" values="0 0 0 0 0 0 0 0 0 0 0 0 0 0 0 0 0 0 0.34 0"/>
<feBlend mode="normal" in2="BackgroundImageFix" result="effect1_dropShadow_2_1824"/>
<feBlend mode="normal" in="SourceGraphic" in2="effect1_dropShadow_2_1824" result="shape"/>
</filter>
<filter id="filter1_d_2_1824" x="-9" y="0" width="394" height="266" filterUnits="userSpaceOnUse" color-interpolation-filters="sRGB">
<feFlood flood-opacity="0" result="BackgroundImageFix"/>
<feColorMatrix in="SourceAlpha" type="matrix" values="0 0 0 0 0 0 0 0 0 0 0 0 0 0 0 0 0 0 127 0" result="hardAlpha"/>
<feOffset dy="1"/>
<feGaussianBlur stdDeviation="12.5"/>
<feColorMatrix type="matrix" values="0 0 0 0 0 0 0 0 0 0 0 0 0 0 0 0 0 0 0.08 0"/>
<feBlend mode="normal" in2="BackgroundImageFix" result="effect1_dropShadow_2_1824"/>
<feBlend mode="normal" in="SourceGraphic" in2="effect1_dropShadow_2_1824" result="shape"/>
</filter>
<linearGradient id="paint0_linear_2_1824" x1="119.5" y1="237.5" x2="311" y2="116.5" gradientUnits="userSpaceOnUse">
<stop stop-color="white"/>
<stop offset="1" stop-color="white" stop-opacity="0"/>
</linearGradient>
<linearGradient id="paint1_linear_2_1824" x1="326.5" y1="-67" x2="326.5" y2="174" gradientUnits="userSpaceOnUse">
<stop stop-color="white"/>
<stop offset="1" stop-color="white" stop-opacity="0"/>
</linearGradient>
<clipPath id="clip0_2_1824">
<rect width="32" height="25" fill="white" transform="translate(303 183)"/>
</clipPath>
</defs>
</svg>
